<svg id="Layer_1" height="180" viewBox="0 0 256 256" width="180" xmlns="http://www.w3.org/2000/svg"><g><g><path d="m205.086 98.009c-12.005-.145-23.969-4.797-33.134-13.961-9.163-9.163-13.823-21.144-13.962-33.168-.328-28.452-24.458-50.973-52.703-47.53-25.31 3.085-49.4 14.048-68.366 33.014-47.343 47.343-44.821 126.626 5.634 177.081s129.738 52.977 177.083 5.633c18.965-18.965 29.928-43.056 33.014-68.365 3.444-28.258-19.1-52.36-47.566-52.704zm11.259 90.463c-7.998 7.998-20.965 7.998-28.963 0s-7.998-20.965 0-28.963 20.965-7.998 28.963 0 7.998 20.965 0 28.963z" fill="#e0ebfc"/></g><g><path d="m136.276 254.939c-33.871.001-68.506-13.451-95.136-40.081-51.154-51.153-53.68-131.861-5.631-179.91 18.706-18.707 42.752-30.32 69.538-33.585 13.787-1.68 27.159 2.453 37.655 11.639 10.818 9.469 17.12 23.266 17.289 37.854.139 12.004 4.889 23.29 13.376 31.777 8.48 8.48 19.754 13.23 31.743 13.375 14.613.177 28.429 6.49 37.904 17.321 9.174 10.488 13.302 23.85 11.622 37.625-3.265 26.785-14.878 50.831-33.585 69.537-23.035 23.037-53.58 34.448-84.775 34.448zm-25.243-249.941c-1.822 0-3.657.111-5.502.336-25.89 3.156-49.126 14.374-67.194 32.442-22.503 22.504-34.32 53.009-33.275 85.898 1.048 32.936 14.865 64.315 38.906 88.357 25.849 25.848 59.466 38.911 92.308 38.913 30.172.002 59.688-11.02 81.947-33.28 18.068-18.068 29.287-41.303 32.442-67.193 1.54-12.631-2.246-24.887-10.662-34.507-8.728-9.977-21.464-15.792-34.942-15.955-13.039-.158-25.3-5.324-34.522-14.547-9.23-9.231-14.397-21.504-14.548-34.56-.155-13.452-5.96-26.169-15.924-34.89-8.222-7.198-18.372-11.014-29.034-11.014zm90.83 191.473c-6.005 0-11.65-2.338-15.896-6.584s-6.584-9.891-6.584-15.896c0-6.004 2.338-11.65 6.584-15.896 4.245-4.246 9.891-6.584 15.896-6.584 6.004 0 11.649 2.338 15.896 6.584 4.246 4.246 6.585 9.891 6.585 15.896s-2.339 11.65-6.585 15.896c-4.246 4.245-9.892 6.584-15.896 6.584zm0-40.96c-4.937 0-9.577 1.922-13.067 5.413s-5.412 8.131-5.412 13.067c0 4.937 1.922 9.577 5.412 13.067s8.131 5.413 13.067 5.413 9.577-1.922 13.067-5.413c3.49-3.49 5.413-8.131 5.413-13.067s-1.923-9.577-5.413-13.067c-3.49-3.491-8.131-5.413-13.067-5.413z" fill="#3762cc"/></g><g><circle cx="74.094" cy="181.906" fill="#ffea92" r="20.48"/></g><g><circle cx="45.404" cy="114.026" fill="#6bdddd" r="20.48"/></g><g><circle cx="141.51" cy="210.132" fill="#f9a7a7" r="20.48"/></g><g><circle cx="80.365" cy="52.493" fill="#a4c9ff" r="20.48"/></g><g><path d="m154.554 144.016-30.899-29.957-11.597 11.597 29.958 30.899z" fill="#a4c9ff"/></g><g><path d="m246.939 233.589-92.386-89.572-12.538 12.538 89.572 92.386c4.219 4.352 11.185 4.406 15.471.12 4.287-4.287 4.233-11.253-.119-15.472z" fill="#eaa97d"/></g><g><path d="m74.095 204.375c-5.757 0-11.514-2.191-15.896-6.574-4.246-4.246-6.584-9.891-6.584-15.896 0-6.004 2.338-11.65 6.584-15.896 8.766-8.765 23.026-8.766 31.792 0 8.765 8.765 8.765 23.026 0 31.791-4.384 4.384-10.14 6.575-15.896 6.575zm0-40.94c-4.733 0-9.465 1.801-13.068 5.404-3.49 3.491-5.412 8.131-5.412 13.067 0 4.937 1.922 9.577 5.412 13.067 7.205 7.205 18.931 7.206 26.136 0 7.204-7.205 7.204-18.929 0-26.135-3.603-3.602-8.337-5.403-13.068-5.403zm14.481 32.952h.01z" fill="#3762cc"/></g><g><path d="m45.403 136.495c-5.756 0-11.513-2.191-15.896-6.574-8.764-8.765-8.764-23.026 0-31.792 8.766-8.764 23.026-8.766 31.792 0 8.766 8.765 8.766 23.027 0 31.792-4.382 4.383-10.139 6.574-15.896 6.574zm0-40.941c-4.732 0-9.465 1.801-13.067 5.404-7.204 7.206-7.204 18.93 0 26.135 7.206 7.206 18.93 7.205 26.136 0 7.205-7.206 7.205-18.93 0-26.135-3.603-3.603-8.335-5.404-13.069-5.404zm14.483 32.953h.01z" fill="#3762cc"/></g><g><path d="m141.511 232.602c-5.757 0-11.514-2.191-15.896-6.574-4.246-4.246-6.584-9.891-6.584-15.896 0-6.004 2.338-11.65 6.584-15.896 8.765-8.765 23.025-8.766 31.792 0 8.765 8.765 8.765 23.026 0 31.791-4.384 4.383-10.14 6.575-15.896 6.575zm0-40.941c-4.733 0-9.465 1.801-13.068 5.404-3.49 3.491-5.412 8.131-5.412 13.067 0 4.937 1.922 9.577 5.412 13.067 7.205 7.205 18.931 7.206 26.136 0 7.204-7.205 7.204-18.929 0-26.135-3.603-3.602-8.337-5.403-13.068-5.403zm14.481 32.952h.01z" fill="#3762cc"/></g><g><path d="m80.365 74.962c-5.757 0-11.514-2.191-15.896-6.574-8.765-8.765-8.765-23.026 0-31.791 8.764-8.766 23.027-8.766 31.791 0 8.765 8.765 8.765 23.026 0 31.791-4.381 4.383-10.138 6.574-15.895 6.574zm0-40.94c-4.732 0-9.465 1.801-13.067 5.404-7.205 7.206-7.205 18.929 0 26.135 7.205 7.205 18.93 7.205 26.135 0 7.205-7.206 7.205-18.929 0-26.135-3.603-3.603-8.335-5.404-13.068-5.404z" fill="#3762cc"/></g><g><path d="m142.016 158.555c-.005 0-.011 0-.016 0-.535-.004-1.047-.223-1.42-.608l-29.958-30.899c-.761-.784-.751-2.034.021-2.806l11.598-11.597c.771-.773 2.021-.782 2.807-.022l30.898 29.958c.384.373.604.885.607 1.42.004.536-.207 1.051-.586 1.43l-12.538 12.539c-.374.374-.883.585-1.413.585zm-27.152-32.878 27.174 28.027 9.665-9.666-28.026-27.173z" fill="#3762cc"/></g><g><path d="m239.386 254.239c-.035 0-.068 0-.104 0-3.471-.027-6.714-1.414-9.13-3.907l-89.572-92.385c-.761-.784-.751-2.034.021-2.806l12.538-12.539c.772-.773 2.021-.782 2.807-.022l92.386 89.572c2.492 2.417 3.88 5.66 3.906 9.132.027 3.471-1.31 6.735-3.765 9.189-2.43 2.431-5.655 3.766-9.087 3.766zm-94.564-97.663 88.201 90.972c1.665 1.717 3.899 2.673 6.29 2.691 2.358-.007 4.64-.903 6.331-2.594s2.612-3.939 2.594-6.33c-.018-2.392-.974-4.626-2.691-6.291l-90.972-88.202z" fill="#3762cc"/></g><g><path d="m119.336 138.012c-11.724 3.921-29.311.83-33.329-49.535-.029-.368.344-.644.683-.5l9.347 3.964c4.173 1.77 8.758 2.336 13.236 1.634 6.917-1.084 13.999.827 19.335 5.359 5.564 4.726 10.513 12.04 7.393 22.161-2.456 7.966-8.76 14.273-16.665 16.917z" fill="#4671c6"/></g><g><path d="m112.449 141.202c-3.761 0-7.274-1.039-10.394-3.101-9.875-6.529-15.945-23.172-18.043-49.465-.069-.878.316-1.71 1.031-2.226.713-.514 1.621-.617 2.427-.274l9.348 3.964c3.832 1.625 8.029 2.144 12.145 1.5 7.568-1.184 15.196.933 20.94 5.81 8.032 6.822 10.802 15.216 8.009 24.274-2.631 8.534-9.339 15.347-17.941 18.224-2.582.864-5.103 1.294-7.522 1.294zm6.887-3.19h.01zm-31.123-47.216c2.139 23.252 7.671 38.43 16.049 43.969 4.12 2.724 8.98 3.177 14.439 1.351 7.384-2.47 13.136-8.305 15.389-15.61 2.316-7.515.037-14.26-6.776-20.047-4.855-4.123-11.317-5.912-17.731-4.907-4.85.759-9.805.148-14.326-1.769z" fill="#3762cc"/></g></g></svg>